<svg id="Layer_1" data-name="Layer 1" xmlns="http://www.w3.org/2000/svg" viewBox="0 0 841.9 595.3"><defs><style>.cls-1{fill:#fff;}.cls-2{fill:#0ebab1;}</style></defs><title>cee</title><path class="cls-1" d="M280,392l6.4-4.3L290,392Z"/><path d="M324.8,441.5c-62.2,64.9-168.7,68.4-235.7-11S27.5,225.4,98.5,154.2c73.7-74,179.3-59,235.2,9.2-5.5.8-10.9,1.4-16.1,2.4-23,4.5-43,16.2-60.1,34-2,2.1-3.3,2.3-5.7,1.1-60.9-32.2-130.8,16.2-133.6,92.3s63,130.5,126,104.6c3.4-1.4,5.1-.8,7.5,2,19,22.6,42,36.3,69.4,40.6l2.2.4Z"/><path d="M772.9,195c1.3,18,2.7,36.1,4.1,54.7-5.2.6-9.9,1.3-14.8,1.5-.8,0-2-1.9-2.6-3.2-3.3-6.5-6-13.4-9.7-19.6-6.1-10.6-15-16.6-26.3-16.9-16.5-.4-33.1-.3-49.6-.1-6.3,0-8.1,2.4-8.1,9.6q-.1,35.4,0,70.8a11.5,11.5,0,0,0,.2,1.6,4.7,4.7,0,0,0,1.5.6l45.2-.2c12.7.1,20.5-6.9,23.9-20.6a39.2,39.2,0,0,1,1.8-6.1c.5-1.1,1.8-2.3,2.8-2.3,4.4-.3,8.8-.1,13.5-.1v76.2c-4.7,0-9.5.2-14.3-.1-.9-.1-1.9-1.8-2.3-3-1.5-4-2.5-8.2-4-12.2-2.9-7.8-8.1-12.5-15.6-12.9-11.6-.6-23.3-.8-34.9-1H666.2c-.1,1.4-.4,2.5-.4,3.6.1,22.6.1,45.2.5,67.8.1,10.2,4.1,16.2,12.9,16.5,20.9.7,41.8.3,62.7-.2,6.4-.2,12.1-4,16.4-9.2,8.1-10.1,15.9-20.6,23.5-31.1,1.9-2.6,3.3-3.9,6.2-3.1s7.4,1.7,11.7,2.6c-1.5,5.2-2.6,10-4,14.7-3.9,13-7.9,25.9-11.7,38.9-1,3.4-2.6,4.5-5.8,4.5H573.8l-4.2-.2v-12c7.8-1.1,15.6-1.8,23.3-3.3,11.7-2.3,15.6-7.1,15.7-20.5.3-35,.2-70,.2-105,0-14.5.1-29.1-.2-43.6s-5.3-20.9-18.7-22.7c-4.4-.6-8.8-1-13.5-1.5V195Z"/><path d="M554.2,357.5c-5.6,18.4-11,36.2-16.6,54-.4,1.2-2.2,2.2-3.5,2.5a32,32,0,0,1-6.2.1H328.6V402.2c7.4-1,14.9-1.7,22.3-3.1,11.9-2.2,15.2-6.4,16.1-20.1q.3-4.8.3-9.6V244.9c0-4.8-.3-9.7-.6-14.5-1-11.5-4.8-16.3-15-18.3-5.2-1-10.5-1.5-16.2-2.3V197.6H527.6c1.3,17.6,2.6,35.3,4,53.4l-15.1,1.6c-3.8-7.6-6.9-14.8-10.7-21.5-6.3-11.2-15.5-17.4-27.3-17.6-15.8-.3-31.6-.3-47.5-.1-5.9,0-8,2.3-8,8.6-.2,23.4-.1,46.9,0,70.3a5.1,5.1,0,0,0,.2,1.3c.3.3.6.6.8.6,15.3,0,30.7,0,46-.2,11.6-.1,18.5-7,22-19.3,2.5-9.1,2.8-9,11.3-9h6.6v74.6c-4.6,0-9,.2-13.4-.2-1,0-2.3-1.6-2.8-2.9a61,61,0,0,1-2.3-7.6c-3-11.2-9.7-17.5-20.1-17.6-15.9-.3-31.9-.1-48-.1a20.9,20.9,0,0,0-.4,3.4c.1,22.1,0,44.2.4,66.3.2,9.8,4.3,15.7,12.9,16,20.1.7,40.4.6,60.6-.3,11.2-.5,18.6-10.2,25.6-19a197,197,0,0,0,14.1-20.6c1.6-2.6,3.2-3.4,5.8-2.8S549.5,356.5,554.2,357.5Z"/><rect class="cls-2" x="170" y="274.2" width="153.7" height="46.97" rx="11.7"/></svg>